<?xml version="1.0" encoding="UTF-8" standalone="no"?>
<!DOCTYPE svg PUBLIC "-//W3C//DTD SVG 1.1//EN" "http://www.w3.org/Graphics/SVG/1.1/DTD/svg11.dtd">
<svg width="100%" height="100%" viewBox="0 0 478 655" version="1.1" xmlns="http://www.w3.org/2000/svg" xmlns:xlink="http://www.w3.org/1999/xlink" xml:space="preserve" xmlns:serif="http://www.serif.com/" style="fill-rule:evenodd;clip-rule:evenodd;stroke-linejoin:round;stroke-miterlimit:2;">
    <g transform="matrix(1.14324,0,0,-1.14324,-28.4575,600.124)">
        <path d="M443,236C443,235.333 441.667,232.833 439,228.5C436.333,224.167 431.333,218.667 424,212C420.667,210 416,206.667 410,202L409,202C405.667,202 404,204.333 404,209L400,209C396.667,201.667 391,198 383,198C381.667,198 381,200.333 381,205C381,217 385.667,223 395,223C398.333,223 400,224.667 400,228C400,229.333 400.5,231 401.5,233C402.5,235 403,236.667 403,238C403,259.333 398,270 388,270C384.667,270 377.333,268 366,264C352.667,260 344,257.667 340,257C338.667,255.667 336.667,254.667 334,254C328.667,250.667 322.5,244.667 315.5,236C308.5,227.333 287.667,210.667 253,186C243,180.667 232.667,175.333 222,170C207.333,161.333 199.667,154.667 199,150C197.667,140.667 193.333,119 186,85C180,58.333 177,36.333 177,19C177,8.333 182,-4.5 192,-19.5C202,-34.5 207,-43 207,-45C207,-47 203,-48 195,-48C185.667,-48 180.5,-46.333 179.5,-43C178.5,-39.667 177.667,-36.667 177,-34C173,-28 171,-23.833 171,-21.5C171,-19.167 170,-17 168,-15L161,-16C149.667,-16 144,-11.333 144,-2C144,0.667 140.333,6.667 133,16C122.333,23.333 106,34 84,48C59.333,63.333 45.667,72 43,74C33,84 27.333,98.333 26,117L25,122C23.667,140.667 34.667,158 58,174C70.667,182.667 83.667,191.333 97,200C108.333,222.667 126.333,241 151,255C181.667,271.667 203.333,288 216,304C232.667,324 241,349 241,379C241,382.333 240.333,384.833 239,386.5C237.667,388.167 237,389.333 237,390C237,392 238,394.667 240,398C242,401.333 243,404.333 243,407C242.333,407.667 242,408.667 242,410L242,413C245.333,415.667 247,420.667 247,428C247,429.333 248,430.833 250,432.5C252,434.167 252.667,436 252,438L252,443C251.333,445 251,446.333 251,447C251,452.333 254.667,458 262,464C269.333,470 273,474.333 273,477L267,482C269.667,484 273.333,487 278,491C278.667,492.333 279.667,493.667 281,495L281,498C283,502 283.667,504 283,504L284,508L296,507C297.333,508.333 298,509.333 298,510C298,511.333 297.333,513.333 296,516L296,518C308,513.333 315.333,511 318,511C318,520.333 319.667,525 323,525C325,525 327.333,522.333 330,517C332.667,511.667 334,507.667 334,505C368.667,494.333 395,479 413,459C414.333,457.667 415,452.667 415,444C409.667,434.667 403.333,430.667 396,432L393,432C388.333,435.333 376,437 356,437C344,437 338,432.333 338,423C338,417.667 339,410 341,400C343.667,388 345.333,380 346,376C346.667,369.333 351.333,361.333 360,352C368.667,342.667 373,328 373,308L374,305C384,300.333 400,298 422,298C434,298 440,288.667 440,270C440,266.667 440.5,261.167 441.5,253.5C442.5,245.833 443,240 443,236ZM428,247C428,268.333 424.333,279 417,279C417.667,276.333 417.667,272.333 417,267C415.667,264.333 415,262 415,260C415,258.667 415.333,256.333 416,253L416,246C416,242.667 416.167,239 416.5,235C416.833,231 418.333,229 421,229C422.333,229.667 423.667,230.667 425,232L425,233C424.333,235 424.667,237.5 426,240.5C427.333,243.5 428,245.667 428,247ZM89,176C85,176 82.667,168.333 82,153C82,149.667 80.833,144.5 78.5,137.5C76.167,130.5 75,124.667 75,120C75,114 77.833,107.167 83.5,99.5C89.167,91.833 94.667,88 100,88C104.667,88 110.167,90.333 116.5,95C122.833,99.667 126,104.333 126,109C126,113 124.667,115.667 122,117C107.333,126.333 98,137.333 94,150L92.5,163C87.5,184.333 86.333,188.667 89,176ZM151,77C151,78.333 150.667,79.333 150,80C146.667,80 141.5,77.5 134.5,72.5C127.5,67.5 124,63.333 124,60C124,54.667 131,52 145,52C147.667,52 149,53 149,55C150.333,64.333 151,71.667 151,77Z" style="fill-rule:nonzero;"/>
    </g>
</svg>
